<svg width="800" height="450" viewBox="0 0 800 450" fill="none" xmlns="http://www.w3.org/2000/svg">
  <rect width="800" height="450" rx="24" fill="#ecfdf5"/>
  <rect x="56" y="72" width="688" height="306" rx="18" fill="#d1fae5" stroke="#d1fae5" stroke-width="2"/>
  <rect x="72" y="96" width="656" height="40" rx="12" fill="#bbf7d0"/>
  <circle cx="96" cy="116" r="6" fill="#ef4444"/>
  <circle cx="120" cy="116" r="6" fill="#f97316"/>
  <circle cx="144" cy="116" r="6" fill="#22c55e"/>
  <rect x="184" y="106" width="112" height="20" rx="10" fill="#ecfdf5" stroke="#6ee7b7" stroke-width="1.5"/>
  <rect x="312" y="106" width="88" height="20" rx="10" fill="#ecfdf5" stroke="#6ee7b7" stroke-width="1.5"/>
  <rect x="416" y="106" width="64" height="20" rx="10" fill="#ecfdf5" stroke="#6ee7b7" stroke-width="1.5"/>
  <rect x="520" y="106" width="72" height="20" rx="10" fill="#ecfdf5" stroke="#6ee7b7" stroke-width="1.5"/>
  <rect x="624" y="106" width="72" height="20" rx="10" fill="#ecfdf5" stroke="#6ee7b7" stroke-width="1.5"/>
  <path d="M112 164L144 180L112 196" stroke="#38bdf8" stroke-width="4" stroke-linecap="round" stroke-linejoin="round"/>
  <path d="M160 212H208" stroke="#22c55e" stroke-width="4" stroke-linecap="round" stroke-linejoin="round"/>
  <path d="M208 244H280" stroke="#4ade80" stroke-width="4" stroke-linecap="round" stroke-linejoin="round"/>
  <path d="M112 228L144 244L112 260" stroke="#38bdf8" stroke-width="4" stroke-linecap="round" stroke-linejoin="round"/>
  <path d="M112 292L144 308L112 324" stroke="#38bdf8" stroke-width="4" stroke-linecap="round" stroke-linejoin="round"/>
  <path d="M160 292H224" stroke="#22c55e" stroke-width="4" stroke-linecap="round" stroke-linejoin="round"/>
  <rect x="280" y="180" width="176" height="16" rx="8" fill="#bbf7d0" stroke="#6ee7b7" stroke-width="1.5"/>
  <rect x="280" y="212" width="232" height="16" rx="8" fill="#bbf7d0" stroke="#6ee7b7" stroke-width="1.5"/>
  <rect x="280" y="244" width="144" height="16" rx="8" fill="#bbf7d0" stroke="#6ee7b7" stroke-width="1.5"/>
  <rect x="280" y="276" width="216" height="16" rx="8" fill="#bbf7d0" stroke="#6ee7b7" stroke-width="1.5"/>
  <rect x="280" y="308" width="192" height="16" rx="8" fill="#bbf7d0" stroke="#6ee7b7" stroke-width="1.5"/>
  <rect x="496" y="180" width="160" height="144" rx="18" fill="#ecfdf5" stroke="#22c55e" stroke-width="2"/>
  <circle cx="576" cy="204" r="28" fill="#bbf7d0" stroke="#22c55e" stroke-width="3"/>
  <path d="M568 196L584 212" stroke="#22c55e" stroke-width="3" stroke-linecap="round" stroke-linejoin="round"/>
  <path d="M584 196L568 212" stroke="#22c55e" stroke-width="3" stroke-linecap="round" stroke-linejoin="round"/>
  <rect x="520" y="244" width="112" height="16" rx="8" fill="#bbf7d0"/>
  <rect x="520" y="272" width="128" height="16" rx="8" fill="#bbf7d0"/>
  <rect x="520" y="300" width="96" height="16" rx="8" fill="#bbf7d0"/>
</svg>
