<svg xmlns="http://www.w3.org/2000/svg" width="91" height="61" viewBox="0 0 91 61" fill="none"><g clip-path="url(#clip0_927_8524)"><path d="M45.3006 45.3019V47.1477H39.8042V38.2383H45.2366V40.0833H41.7491V41.4828H44.8848V43.2772H41.7483V45.3019H45.3006Z" fill="#212121"></path><path d="M45.9385 46.7326L46.6536 45.1541C47.2704 45.5555 47.9791 45.788 48.7108 45.829C49.0492 45.829 49.238 45.7523 49.238 45.5616C49.238 45.333 49.0126 45.2942 48.8372 45.2183L47.821 44.8116C47.4176 44.7143 47.0585 44.4815 46.8019 44.151C46.5453 43.8205 46.4063 43.4118 46.4074 42.9911C46.4074 41.7822 47.2232 41.082 48.8921 41.082C49.6043 41.0895 50.311 41.2096 50.9867 41.438L50.4595 42.9911C49.9162 42.7452 49.3343 42.5987 48.7407 42.5584C48.364 42.5584 48.2767 42.6604 48.2767 42.8114C48.2767 42.9894 48.4272 43.0645 48.7158 43.1801L49.7194 43.5622C50.1238 43.6468 50.4861 43.8728 50.743 44.2007C50.9999 44.5287 51.135 44.9378 51.1247 45.3566C51.1247 46.7562 50.1086 47.3416 48.5653 47.3416C47.6572 47.3402 46.7611 47.1315 45.9435 46.7309" fill="#212121"></path><path d="M56.5771 44.209C56.5735 43.9414 56.4919 43.6809 56.3426 43.4603C56.1934 43.2397 55.9831 43.0689 55.7383 42.9693C55.4935 42.8697 55.2251 42.8458 54.9669 42.9007C54.7088 42.9556 54.4724 43.0867 54.2876 43.2776C54.1028 43.4685 53.9778 43.7106 53.9284 43.9735C53.8789 44.2363 53.9072 44.5081 54.0098 44.7546C54.1123 45.0012 54.2845 45.2114 54.5046 45.3589C54.7247 45.5063 54.9829 45.5844 55.2466 45.5832C55.4252 45.59 55.6032 45.5588 55.7692 45.4918C55.9352 45.4248 56.0857 45.3234 56.2109 45.1941C56.3361 45.0648 56.4333 44.9103 56.4963 44.7407C56.5594 44.5711 56.5869 44.39 56.5771 44.209ZM51.9604 41.2682H53.8546V42.0696H53.8796C54.0771 41.7456 54.3577 41.4822 54.6913 41.3075C55.025 41.1328 55.3991 41.0533 55.7738 41.0775C57.2797 41.0775 58.5179 42.1464 58.5179 44.2082C58.5179 46.2699 57.2756 47.3388 55.7738 47.3388C55.399 47.363 55.0248 47.2834 54.6912 47.1085C54.3575 46.9336 54.077 46.67 53.8796 46.3459H53.8546V49.6933H51.9604V41.2682Z" fill="#212121"></path><path d="M60.9685 43.5319H63.2768C63.2801 43.3857 63.2534 43.2403 63.1985 43.105C63.1437 42.9698 63.0618 42.8475 62.9581 42.7459C62.8543 42.6443 62.731 42.5656 62.5958 42.5147C62.4606 42.4639 62.3165 42.442 62.1726 42.4504C62.0225 42.436 61.871 42.453 61.7277 42.5005C61.5843 42.5479 61.4522 42.6247 61.3393 42.7261C61.2264 42.8275 61.1352 42.9513 61.0714 43.0899C61.0077 43.2285 60.9726 43.379 60.9685 43.5319ZM65.1078 44.2321V44.6649H60.9585C61.0216 45.0024 61.2109 45.3021 61.4867 45.5015C61.7625 45.7008 62.1036 45.7843 62.4387 45.7346C63.0376 45.7208 63.6205 45.5353 64.12 45.1997L64.8094 46.6499C64.09 47.1028 63.2595 47.3411 62.4129 47.3374C61.9934 47.3756 61.5707 47.3228 61.1728 47.1827C60.7749 47.0426 60.4109 46.8183 60.1049 46.5247C59.7989 46.2311 59.5579 45.8749 59.3979 45.4796C59.2378 45.0844 59.1624 44.6591 59.1765 44.2321C59.1457 43.8145 59.2034 43.3951 59.3458 43.0021C59.4881 42.6091 59.7119 42.2516 60.0019 41.9538C60.292 41.6559 60.6416 41.4246 61.0272 41.2754C61.4129 41.1262 61.8255 41.0625 62.2374 41.0888C63.9836 41.0888 65.1104 42.107 65.1104 44.2321" fill="#212121"></path><path d="M67.6066 44.2083C67.6066 44.4801 67.686 44.7457 67.8348 44.9717C67.9836 45.1977 68.1951 45.3739 68.4426 45.4779C68.69 45.5819 68.9623 45.6092 69.2251 45.5562C69.4878 45.5033 69.7292 45.3725 69.9186 45.1804C70.1081 44.9883 70.2372 44.7435 70.2895 44.477C70.3419 44.2104 70.3152 43.9341 70.2128 43.683C70.1104 43.4319 69.9369 43.2172 69.7143 43.0661C69.4916 42.915 69.2298 42.8342 68.962 42.8341C68.7821 42.8267 68.6027 42.8572 68.435 42.9236C68.2673 42.9901 68.115 43.0911 67.9877 43.2202C67.8604 43.3493 67.7608 43.5037 67.6952 43.6738C67.6296 43.8438 67.5994 44.0258 67.6066 44.2083ZM72.2232 44.2083C72.2581 44.8689 72.097 45.5249 71.7607 46.0917C71.4244 46.6584 70.9282 47.1098 70.3364 47.3876C69.7446 47.6653 69.0843 47.7567 68.4408 47.6499C67.7973 47.543 67.2002 47.2429 66.7266 46.7882C66.2529 46.3335 65.9245 45.7452 65.7838 45.0993C65.6431 44.4533 65.6966 43.7794 65.9373 43.1646C66.1779 42.5497 66.5948 42.0223 67.134 41.6502C67.6731 41.2782 68.3099 41.0788 68.962 41.0777C69.3833 41.0462 69.8066 41.1042 70.2046 41.248C70.6026 41.3918 70.9667 41.6182 71.2736 41.9128C71.5805 42.2074 71.8234 42.5637 71.987 42.959C72.1505 43.3542 72.2309 43.7797 72.2232 44.2083Z" fill="#212121"></path><path d="M45.3988 52.357L44.5831 54.1008C43.9715 53.7672 43.2943 53.5761 42.6007 53.5415C41.9862 53.5415 41.7983 53.7574 41.7983 54.0628C41.7983 54.3303 41.9646 54.5091 42.4635 54.8145L43.9187 55.7425C44.4144 55.9686 44.8355 56.3349 45.1313 56.7975C45.4271 57.2601 45.5853 57.7995 45.5868 58.3509C45.5868 60.0694 44.4326 60.9982 42.3878 60.9982C41.2374 61.0038 40.1066 60.6962 39.1133 60.1073L39.9914 58.3357C40.7254 58.8332 41.5807 59.1149 42.4627 59.1498C43.1653 59.1498 43.5437 58.9086 43.5437 58.4378C43.5437 58.0295 43.2052 57.7882 42.7121 57.4829L41.37 56.63C40.893 56.4011 40.4886 56.0413 40.2026 55.5914C39.9167 55.1414 39.7605 54.6192 39.7519 54.0839C39.7519 52.6337 40.6932 51.7041 42.5492 51.7041C43.5322 51.7209 44.5014 51.9417 45.3971 52.3529" fill="#212121"></path><path d="M48.1466 57.8685C48.1466 58.1402 48.226 58.4059 48.3748 58.6319C48.5236 58.8579 48.7351 59.034 48.9826 59.138C49.2301 59.2421 49.5024 59.2693 49.7651 59.2164C50.0278 59.1634 50.2692 59.0326 50.4587 58.8405C50.6482 58.6484 50.7772 58.4036 50.8296 58.1371C50.8819 57.8706 50.8552 57.5943 50.7528 57.3432C50.6505 57.0921 50.477 56.8774 50.2543 56.7262C50.0317 56.5751 49.7699 56.4944 49.502 56.4942C49.3221 56.4869 49.1427 56.5174 48.975 56.5838C48.8074 56.6503 48.6551 56.7512 48.5278 56.8803C48.4004 57.0094 48.3008 57.1639 48.2352 57.3339C48.1696 57.504 48.1395 57.686 48.1466 57.8685ZM52.7633 57.8685C52.7982 58.5291 52.6371 59.1851 52.3007 59.7518C51.9644 60.3186 51.4683 60.77 50.8765 61.0478C50.2847 61.3255 49.6244 61.4169 48.9809 61.31C48.3374 61.2032 47.7402 60.903 47.2666 60.4484C46.793 59.9937 46.4646 59.4054 46.3239 58.7594C46.1832 58.1135 46.2366 57.4396 46.4773 56.8247C46.718 56.2099 47.1348 55.6824 47.674 55.3104C48.2132 54.9384 48.8499 54.739 49.502 54.7378C49.9234 54.7063 50.3466 54.7643 50.7446 54.9081C51.1427 55.0519 51.5067 55.2784 51.8136 55.573C52.1205 55.8676 52.3635 56.2239 52.527 56.6191C52.6905 57.0144 52.771 57.4399 52.7633 57.8685Z" fill="#212121"></path><path d="M56.2004 54.6492V54.9293H57.4302V56.5321H56.2004V60.8076H54.3062V56.5313H53.29V54.9284H54.3062V54.5851C54.3062 52.638 55.2208 51.7725 57.0909 51.7725H57.4801V53.5525H57.3138C56.4823 53.5525 56.1971 53.7811 56.1971 54.6492" fill="#212121"></path><path d="M60.8795 56.532V58.3036C60.8795 58.8511 61.0176 59.0291 61.5074 59.0291H61.7203V60.8108H60.9303C60.6657 60.8461 60.3966 60.8189 60.144 60.7314C59.8915 60.6439 59.6622 60.4985 59.4741 60.3064C59.2859 60.1143 59.144 59.8808 59.0594 59.624C58.9748 59.3672 58.9497 59.094 58.9862 58.8258V56.5345H57.8569V54.9317H58.9862V52.5771H60.8804V54.9317H62.072V56.5345L60.8795 56.532Z" fill="#212121"></path><path d="M72.472 54.9277L70.3649 60.8077H68.7459L67.4662 57.3717L66.199 60.8077H64.5808L62.4604 54.9277H64.3422L65.4232 58.3764L66.6023 54.9277H68.3485L69.5276 58.3764L70.6086 54.9277H72.472Z" fill="#212121"></path><path d="M77.539 57.8688C77.5354 57.6018 77.4542 57.3418 77.3055 57.1215C77.1567 56.9011 76.9472 56.7303 76.7031 56.6303C76.459 56.5303 76.1913 56.5057 75.9335 56.5596C75.6756 56.6134 75.4393 56.7433 75.2539 56.9329C75.0686 57.1226 74.9426 57.3635 74.8918 57.6256C74.8409 57.8876 74.8675 58.159 74.9681 58.4057C75.0688 58.6525 75.239 58.8636 75.4575 59.0126C75.6759 59.1615 75.9329 59.2417 76.1961 59.2431C76.3756 59.2512 76.5548 59.2212 76.7221 59.1548C76.8894 59.0885 77.0413 58.9873 77.1678 58.8579C77.2943 58.7284 77.3926 58.5736 77.4565 58.4032C77.5205 58.2329 77.5486 58.0508 77.539 57.8688ZM72.9224 57.8688C72.9224 55.807 74.1647 54.7382 75.6664 54.7382C76.0414 54.7124 76.4162 54.7913 76.7501 54.9664C77.084 55.1414 77.3644 55.4059 77.5606 55.7311H77.5856V54.9288H79.4798V60.8088H77.5856V60.0065H77.5606C77.3644 60.3318 77.084 60.5963 76.7501 60.7713C76.4162 60.9463 76.0414 61.0252 75.6664 60.9995C74.1613 60.9995 72.9224 59.9306 72.9224 57.8688Z" fill="#212121"></path><path d="M84.5521 56.6721H84.3858C83.1194 56.6721 82.6047 57.1428 82.6047 58.6445V60.8075H80.7104V54.9275H82.5673V56.1237H82.5922C82.7078 55.7058 82.9617 55.3411 83.3112 55.0908C83.6607 54.8405 84.0846 54.72 84.5114 54.7495H84.5488L84.5521 56.6721Z" fill="#212121"></path><path d="M86.8608 57.194H89.1683C89.1716 57.0477 89.145 56.9023 89.0902 56.767C89.0354 56.6316 88.9536 56.5093 88.8498 56.4077C88.7461 56.3061 88.6226 56.2274 88.4874 56.1765C88.3521 56.1257 88.208 56.1039 88.064 56.1125C87.9139 56.0981 87.7625 56.1151 87.6192 56.1626C87.4758 56.21 87.3436 56.2868 87.2307 56.3882C87.1178 56.4896 87.0267 56.6134 86.9629 56.752C86.8991 56.8907 86.8641 57.0411 86.86 57.194H86.8608ZM90.9993 57.8942V58.3269H86.8491C86.9123 58.6645 87.1015 58.9642 87.3773 59.1636C87.6531 59.3629 87.9942 59.4464 88.3293 59.3967C88.9283 59.3828 89.5111 59.1974 90.0106 58.8618L90.6999 60.312C89.9806 60.7648 89.1501 61.0031 88.3035 60.9995C87.884 61.0376 87.4613 60.9849 87.0634 60.8448C86.6655 60.7047 86.3015 60.4804 85.9955 60.1868C85.6895 59.8932 85.4486 59.5369 85.2885 59.1417C85.1285 58.7465 85.053 58.3212 85.0672 57.8942C85.0363 57.4766 85.094 57.0572 85.2364 56.6642C85.3788 56.2712 85.6025 55.9138 85.8926 55.6159C86.1826 55.318 86.5322 55.0867 86.9179 54.9375C87.3035 54.7882 87.7162 54.7246 88.1281 54.7509C89.8743 54.7509 91.001 55.7691 91.001 57.8942" fill="#212121"></path><path d="M29.7846 38.2763C29.1817 37.2209 28.1905 36.4514 27.0288 36.1369C25.8671 35.8225 24.6298 35.9887 23.5888 36.5992L23.5589 36.6186C21.3496 37.9275 18.7183 38.2923 16.2438 37.6329C13.7693 36.9735 11.6544 35.3438 10.3642 33.1024C9.07409 30.861 8.71443 28.1914 9.3644 25.6809C10.0144 23.1705 11.6207 21.0248 13.83 19.7159L13.8541 19.7033C14.8792 19.0839 15.6222 18.0796 15.9221 16.9081C16.2221 15.7366 16.0548 14.4923 15.4564 13.4451C14.8581 12.3979 13.877 11.6323 12.7259 11.3141C11.5748 10.9959 10.3465 11.1509 9.30735 11.7455L9.29819 11.7514L9.29403 11.7438C7.17013 12.9998 5.31088 14.6678 3.8224 16.6528C2.33393 18.6378 1.2454 20.9007 0.618959 23.3125C-0.00748304 25.7242 -0.159562 28.2375 0.171398 30.7089C0.502358 33.1803 1.30988 35.5614 2.54786 37.7161C3.78583 39.8709 5.43 41.7572 7.38652 43.2673C9.34305 44.7774 11.5736 45.8817 13.9508 46.5173C16.328 47.1528 18.8053 47.3071 21.2413 46.9714C23.6773 46.6356 26.0242 45.8163 28.1481 44.5604V44.5528C29.185 43.9404 29.94 42.9356 30.2474 41.759C30.5548 40.5825 30.3896 39.3302 29.7879 38.2771" fill="#212121"></path><path d="M35.5636 4.59616H35.5578C35.5578 3.37744 35.0806 2.20864 34.2312 1.34688C33.3818 0.485116 32.2297 0.000976562 31.0284 0.000976562C29.8272 0.000976562 28.6751 0.485116 27.8257 1.34688C26.9763 2.20864 26.4991 3.37744 26.4991 4.59616H26.4933V10.8802C23.7682 9.61496 20.7831 9.03313 17.7899 9.18377C14.7967 9.33441 11.8831 10.2131 9.29478 11.7458L9.29892 11.7534C8.78427 12.0568 8.3336 12.4602 7.9726 12.9404C7.61161 13.4206 7.34735 13.9683 7.19497 14.5521C7.04259 15.1359 7.00505 15.7444 7.08448 16.3429C7.16391 16.9415 7.35876 17.5183 7.65791 18.0404C7.95706 18.5625 8.35463 19.0198 8.82796 19.386C9.30128 19.7523 9.84107 20.0203 10.4165 20.1749C10.992 20.3295 11.5918 20.3676 12.1817 20.287C12.7717 20.2065 13.3402 20.0088 13.8549 19.7053L13.8856 19.685C15.4098 18.7886 17.1469 18.3332 18.9083 18.3681C20.6697 18.4031 22.388 18.9271 23.8764 19.8833L16.4758 24.2186V24.2237C15.4587 24.8446 14.7225 25.8458 14.4257 27.0118C14.1288 28.1779 14.295 29.4156 14.8885 30.4585C15.482 31.5015 16.4554 32.2664 17.5992 32.5886C18.743 32.9109 19.9658 32.7646 21.0044 32.1814L33.1771 25.0512L33.1854 25.047L33.2935 24.9838C33.9704 24.5883 34.5346 24.0215 34.9311 23.3386C35.3275 22.6558 35.5425 21.8803 35.5553 21.0879H35.5619L35.5636 4.59616Z" fill="#F90045"></path></g><defs><clipPath id="clip0_927_8524"><rect width="91" height="61" fill="white"></rect></clipPath></defs></svg>