<?xml version="1.0" encoding="UTF-8"?>
<svg version="1.1" xmlns="http://www.w3.org/2000/svg" width="200" height="200">
<path d="M0 0 C66 0 132 0 200 0 C200 66 200 132 200 200 C134 200 68 200 0 200 C0 134 0 68 0 0 Z " fill="#FEFEFE" transform="translate(0,0)"/>
<path d="M0 0 C1.01167236 0.00273926 2.02334473 0.00547852 3.06567383 0.00830078 C11.90168537 0.13194099 19.77061259 1.12655953 27.6875 5.3125 C27.20769194 9.2709165 25.78586126 12.13009951 23.7421875 15.53125 C22.24799299 18.05477851 20.97263809 20.67796692 19.6875 23.3125 C18.75744141 22.879375 18.75744141 22.879375 17.80859375 22.4375 C7.9495615 18.30445591 -3.41643563 17.23438843 -13.51953125 21.34765625 C-18.53844189 24.04846437 -21.46463289 28.23025701 -23.58203125 33.3984375 C-26.07372087 43.33854688 -25.51020056 55.34928262 -20.3125 64.3125 C-16.84404204 68.68055801 -12.62342645 70.0557993 -7.3125 71.3125 C-4.61680342 71.52027641 -2.06427903 71.64690334 0.625 71.625 C1.67941284 71.61871582 1.67941284 71.61871582 2.75512695 71.61230469 C8.13757972 71.49490115 11.9476234 70.81658575 16.6875 68.3125 C17.595 67.838125 18.5025 67.36375 19.4375 66.875 C26.37813137 58.97039205 26.34712133 47.75468792 26.91674805 37.76245117 C27.62685507 26.52052738 30.06985522 17.46050547 38.50390625 9.625 C51.31939429 -0.73094993 67.33047265 -0.83059738 83.0234375 0.62109375 C93.7494379 2.35753794 102.34503424 6.1274562 109.6875 14.3125 C111.51664626 16.86479711 112.65747644 19.35248279 113.6875 22.3125 C113.98398438 23.13878906 114.28046875 23.96507813 114.5859375 24.81640625 C119.18501968 39.98493877 117.98856715 58.35062468 111.4375 72.75 C106.30958127 81.9772284 99.68275154 86.12560821 89.6875 89.3125 C83.82803571 90.69477718 77.86178738 90.49633836 71.875 90.5 C70.83279297 90.51224609 69.79058594 90.52449219 68.71679688 90.53710938 C59.564625 90.5543451 51.97006215 89.18944398 43.6875 85.3125 C46.6875 79.3125 49.6875 73.3125 52.6875 67.3125 C53.20054688 67.60125 53.71359375 67.89 54.2421875 68.1875 C63.31083037 72.58441776 74.22948794 73.07094666 83.9296875 70.4296875 C91.03297262 67.2469099 93.06795489 63.28038551 95.9375 56.25 C98.17176048 47.31295808 97.64465191 36.67178476 93.6875 28.3125 C89.63044858 23.01579398 84.85992557 21.36997519 78.6875 19.3125 C68.73021889 18.58420965 60.31883606 18.71851532 52.3125 25.25 C48.21852586 30.44619795 46.61416838 34.60569031 46.4765625 41.1640625 C46.44820313 42.09863281 46.41984375 43.03320312 46.390625 43.99609375 C46.33916889 45.93341624 46.2947202 47.8709395 46.2578125 49.80859375 C45.87037214 61.60938149 42.63477881 73.42551795 33.80078125 81.7109375 C23.94528436 89.17998321 12.29126651 90.6647174 0.3125 90.625 C-0.65171875 90.64111328 -1.6159375 90.65722656 -2.609375 90.67382812 C-13.79301212 90.68132386 -24.58534368 88.02244518 -33.25 80.66796875 C-43.444389 70.23190243 -44.61096212 56.35115528 -44.62939453 42.59545898 C-44.47603091 29.9865083 -41.78181439 19.20805244 -32.875 9.79296875 C-23.50696582 1.36682931 -12.11493588 -0.06616349 0 0 Z " fill="#3D2EF1" transform="translate(63.3125,58.6875)"/>
</svg>
